<svg width="156" height="28" viewBox="0 0 156 28" fill="none" xmlns="http://www.w3.org/2000/svg">
<path d="M103.986 21.6661L117.915 5.82709V5.66833H105.569V0H126.25V5.77434L112.639 21.2426V21.4013H126.936V27.1752H103.986V21.6661Z" fill="#063165"/>
<path d="M102.035 4.38375L97.669 0L88.5023 9.20409L79.3357 0L74.9697 4.38375L84.1364 13.5878L74.9697 22.7914L79.3357 27.1752L88.5023 17.9716L97.669 27.1752L102.035 22.7914L92.8682 13.5878L102.035 4.38375Z" fill="#063165"/>
<path d="M21.4252 0H0V6.1993H21.4252V0Z" fill="#063165"/>
<path d="M21.4252 10.4877H6.17409H0V16.6875V26.9782H6.17409V16.6875H21.4252V10.4877Z" fill="#063165"/>
<path d="M71.7309 6.1993V0H50.3052V3.09965V6.1993V10.4877V16.6875V20.9759V21.7339V27.1752H71.7309V20.9759H56.4798V16.6875H71.7309V10.4877H56.4798V6.1993H71.7309Z" fill="#063165"/>
<path d="M31.327 20.9759V0H25.1529V20.9759V27.1752H31.327H46.5781V20.9759H31.327Z" fill="#063165"/>
<path d="M103.986 21.6661L117.915 5.82709V5.66833H105.569V0H126.25V5.77434L112.639 21.2426V21.4013H126.936V27.1752H103.986V21.6661Z" fill="#063165"/>
<path d="M142.444 0C134.957 0 128.888 6.09427 128.888 13.6116C128.888 21.1288 134.957 27.2231 142.444 27.2231C149.931 27.2231 156 21.1288 156 13.6116C156 6.09427 149.931 0 142.444 0Z" fill="#0CE3FF"/>
</svg>
