<svg width="45" height="45" viewBox="0 0 45 45" fill="none" xmlns="http://www.w3.org/2000/svg">
<circle cx="22.5" cy="22.5" r="22" fill="white" stroke="#D9D9D9"/>
<path d="M22 33C19.3167 30.7167 17.3125 28.5958 15.9875 26.6375C14.6625 24.6792 14 22.8667 14 21.2C14 18.7 14.8042 16.7083 16.4125 15.225C18.0208 13.7417 19.8833 13 22 13H22.5C22.6667 13 22.8333 13.0167 23 13.05V15.075C22.8333 15.0417 22.6708 15.0208 22.5125 15.0125C22.3542 15.0042 22.1833 15 22 15C20.3167 15 18.8958 15.5792 17.7375 16.7375C16.5792 17.8958 16 19.3833 16 21.2C16 22.3833 16.4917 23.7375 17.475 25.2625C18.4583 26.7875 19.9667 28.4833 22 30.35C24.0333 28.4833 25.5417 26.7875 26.525 25.2625C27.5083 23.7375 28 22.3833 28 21.2V21H30V21.2C30 22.8667 29.3375 24.6792 28.0125 26.6375C26.6875 28.5958 24.6833 30.7167 22 33ZM23.4125 22.4125C23.8042 22.0208 24 21.55 24 21C24 20.45 23.8042 19.9792 23.4125 19.5875C23.0208 19.1958 22.55 19 22 19C21.45 19 20.9792 19.1958 20.5875 19.5875C20.1958 19.9792 20 20.45 20 21C20 21.55 20.1958 22.0208 20.5875 22.4125C20.9792 22.8042 21.45 23 22 23C22.55 23 23.0208 22.8042 23.4125 22.4125ZM28 19H30V16H33V14H30V11H28V14H25V16H28V19Z" fill="#063165"/>
</svg>
