<svg width="45" height="45" viewBox="0 0 45 45" fill="none" xmlns="http://www.w3.org/2000/svg">
<circle cx="22.5" cy="22.5" r="22" fill="white" stroke="#D9D9D9"/>
<path d="M23 32C21.6167 32 20.3167 31.7375 19.1 31.2125C17.8833 30.6875 16.825 29.975 15.925 29.075C15.025 28.175 14.3125 27.1167 13.7875 25.9C13.2625 24.6833 13 23.3833 13 22C13 20.6167 13.2625 19.3167 13.7875 18.1C14.3125 16.8833 15.025 15.825 15.925 14.925C16.825 14.025 17.8833 13.3125 19.1 12.7875C20.3167 12.2625 21.6167 12 23 12C24.0833 12 25.1083 12.1583 26.075 12.475C27.0417 12.7917 27.9333 13.2333 28.75 13.8L27.3 15.275C26.6667 14.875 25.9917 14.5625 25.275 14.3375C24.5583 14.1125 23.8 14 23 14C20.7833 14 18.8958 14.7792 17.3375 16.3375C15.7792 17.8958 15 19.7833 15 22C15 24.2167 15.7792 26.1042 17.3375 27.6625C18.8958 29.2208 20.7833 30 23 30C23.5333 30 24.05 29.95 24.55 29.85C25.05 29.75 25.5333 29.6083 26 29.425L27.5 30.95C26.8167 31.2833 26.1 31.5417 25.35 31.725C24.6 31.9083 23.8167 32 23 32ZM30 30V27H27V25H30V22H32V25H35V27H32V30H30ZM21.6 26.6L17.35 22.35L18.75 20.95L21.6 23.8L31.6 13.775L33 15.175L21.6 26.6Z" fill="#063165"/>
</svg>
