<svg width="45" height="45" viewBox="0 0 45 45" fill="none" xmlns="http://www.w3.org/2000/svg">
<circle cx="22.5" cy="22.5" r="22" fill="white" stroke="#D9D9D9"/>
<path d="M29.0625 26.5625C29.3542 26.2708 29.5 25.9167 29.5 25.5C29.5 25.0833 29.3542 24.7292 29.0625 24.4375C28.7708 24.1458 28.4167 24 28 24C27.5833 24 27.2292 24.1458 26.9375 24.4375C26.6458 24.7292 26.5 25.0833 26.5 25.5C26.5 25.9167 26.6458 26.2708 26.9375 26.5625C27.2292 26.8542 27.5833 27 28 27C28.4167 27 28.7708 26.8542 29.0625 26.5625ZM28 30C28.5167 30 28.9917 29.8792 29.425 29.6375C29.8583 29.3958 30.2083 29.075 30.475 28.675C30.1083 28.4583 29.7167 28.2917 29.3 28.175C28.8833 28.0583 28.45 28 28 28C27.55 28 27.1167 28.0583 26.7 28.175C26.2833 28.2917 25.8917 28.4583 25.525 28.675C25.7917 29.075 26.1417 29.3958 26.575 29.6375C27.0083 29.8792 27.4833 30 28 30ZM23 32C20.6833 31.4167 18.7708 30.0875 17.2625 28.0125C15.7542 25.9375 15 23.6333 15 21.1V15L23 12L31 15V20.675C30.6833 20.5417 30.3583 20.4208 30.025 20.3125C29.6917 20.2042 29.35 20.125 29 20.075V16.4L23 14.15L17 16.4V21.1C17 21.8833 17.1042 22.6667 17.3125 23.45C17.5208 24.2333 17.8125 24.9792 18.1875 25.6875C18.5625 26.3958 19.0167 27.05 19.55 27.65C20.0833 28.25 20.675 28.75 21.325 29.15C21.5083 29.6833 21.75 30.1917 22.05 30.675C22.35 31.1583 22.6917 31.5917 23.075 31.975C23.0583 31.975 23.0458 31.9792 23.0375 31.9875C23.0292 31.9958 23.0167 32 23 32ZM28 32C26.6167 32 25.4375 31.5125 24.4625 30.5375C23.4875 29.5625 23 28.3833 23 27C23 25.6167 23.4875 24.4375 24.4625 23.4625C25.4375 22.4875 26.6167 22 28 22C29.3833 22 30.5625 22.4875 31.5375 23.4625C32.5125 24.4375 33 25.6167 33 27C33 28.3833 32.5125 29.5625 31.5375 30.5375C30.5625 31.5125 29.3833 32 28 32Z" fill="#063165"/>
</svg>
