<svg width="45" height="45" viewBox="0 0 45 45" fill="none" xmlns="http://www.w3.org/2000/svg">
<circle cx="22.5" cy="22.5" r="22" fill="white" stroke="#D9D9D9"/>
<path d="M16.5 31.5C16.2167 31.5 15.9292 31.4125 15.6375 31.2375C15.3459 31.0625 15.1334 30.8583 15 30.625L12.5 26.25C12.3667 26.0167 12.3 25.7292 12.3 25.3875C12.3 25.0458 12.3667 24.7583 12.5 24.525L19 13.375C19.1334 13.1417 19.3459 12.9375 19.6375 12.7625C19.9292 12.5875 20.2167 12.5 20.5 12.5H25.5C25.7834 12.5 26.0709 12.5875 26.3625 12.7625C26.6542 12.9375 26.8667 13.1417 27 13.375L31.55 21.175C31.1667 21.075 30.7709 21.0083 30.3625 20.975C29.9542 20.9417 29.55 20.9583 29.15 21.025L25.35 14.5H20.65L14.3 25.4L16.65 29.5H24.55C24.7334 29.8833 24.9459 30.2417 25.1875 30.575C25.4292 30.9083 25.7084 31.2167 26.025 31.5H16.5ZM18.25 27L17.525 25.725L22.1 17.75H23.9L26.425 22.15C26.1417 22.3667 25.8792 22.6042 25.6375 22.8625C25.3959 23.1208 25.1834 23.3917 25 23.675L23 20.2L20.25 25H24.35C24.2334 25.3167 24.1459 25.6417 24.0875 25.975C24.0292 26.3083 24 26.65 24 27H18.25ZM29 31V28H26V26H29V23H31V26H34V28H31V31H29Z" fill="#063165"/>
</svg>
