<svg width="45" height="45" viewBox="0 0 45 45" fill="none" xmlns="http://www.w3.org/2000/svg">
<circle cx="22.5" cy="22.5" r="22" fill="white" stroke="#D9D9D9"/>
<path d="M15 29C14.7167 29 14.4792 28.9042 14.2875 28.7125C14.0958 28.5208 14 28.2833 14 28C14 27.7167 14.0958 27.4792 14.2875 27.2875C14.4792 27.0958 14.7167 27 15 27H16V20C16 18.6167 16.4167 17.3875 17.25 16.3125C18.0833 15.2375 19.1667 14.5333 20.5 14.2V13.5C20.5 13.0833 20.6458 12.7292 20.9375 12.4375C21.2292 12.1458 21.5833 12 22 12C22.4167 12 22.7708 12.1458 23.0625 12.4375C23.3542 12.7292 23.5 13.0833 23.5 13.5V14.2C24.8333 14.5333 25.9167 15.2375 26.75 16.3125C27.5833 17.3875 28 18.6167 28 20V27H29C29.2833 27 29.5208 27.0958 29.7125 27.2875C29.9042 27.4792 30 27.7167 30 28C30 28.2833 29.9042 28.5208 29.7125 28.7125C29.5208 28.9042 29.2833 29 29 29H15ZM22 32C21.45 32 20.9792 31.8042 20.5875 31.4125C20.1958 31.0208 20 30.55 20 30H24C24 30.55 23.8042 31.0208 23.4125 31.4125C23.0208 31.8042 22.55 32 22 32ZM18 27H26V20C26 18.9 25.6083 17.9583 24.825 17.175C24.0417 16.3917 23.1 16 22 16C20.9 16 19.9583 16.3917 19.175 17.175C18.3917 17.9583 18 18.9 18 20V27ZM21 23V24C21 24.2833 21.0958 24.5208 21.2875 24.7125C21.4792 24.9042 21.7167 25 22 25C22.2833 25 22.5208 24.9042 22.7125 24.7125C22.9042 24.5208 23 24.2833 23 24V23H24C24.2833 23 24.5208 22.9042 24.7125 22.7125C24.9042 22.5208 25 22.2833 25 22C25 21.7167 24.9042 21.4792 24.7125 21.2875C24.5208 21.0958 24.2833 21 24 21H23V20C23 19.7167 22.9042 19.4792 22.7125 19.2875C22.5208 19.0958 22.2833 19 22 19C21.7167 19 21.4792 19.0958 21.2875 19.2875C21.0958 19.4792 21 19.7167 21 20V21H20C19.7167 21 19.4792 21.0958 19.2875 21.2875C19.0958 21.4792 19 21.7167 19 22C19 22.2833 19.0958 22.5208 19.2875 22.7125C19.4792 22.9042 19.7167 23 20 23H21Z" fill="#063165"/>
</svg>
