<svg width="45" height="45" viewBox="0 0 45 45" fill="none" xmlns="http://www.w3.org/2000/svg">
<circle cx="22.5" cy="22.5" r="22" fill="white" stroke="#D9D9D9"/>
<path d="M21.95 26.5501L27.6 20.9001L26.175 19.4751L21.95 23.7001L19.825 21.5751L18.4 23.0001L21.95 26.5501ZM19.4875 31.2876C18.3958 30.8126 17.4458 30.1709 16.6375 29.3626C15.8291 28.5543 15.1875 27.6043 14.7125 26.5126C14.2375 25.4209 14 24.2501 14 23.0001C14 21.7501 14.2375 20.5793 14.7125 19.4876C15.1875 18.3959 15.8291 17.4459 16.6375 16.6376C17.4458 15.8293 18.3958 15.1876 19.4875 14.7126C20.5791 14.2376 21.75 14.0001 23 14.0001C24.25 14.0001 25.4208 14.2376 26.5125 14.7126C27.6041 15.1876 28.5541 15.8293 29.3625 16.6376C30.1708 17.4459 30.8125 18.3959 31.2875 19.4876C31.7625 20.5793 32 21.7501 32 23.0001C32 24.2501 31.7625 25.4209 31.2875 26.5126C30.8125 27.6043 30.1708 28.5543 29.3625 29.3626C28.5541 30.1709 27.6041 30.8126 26.5125 31.2876C25.4208 31.7626 24.25 32.0001 23 32.0001C21.75 32.0001 20.5791 31.7626 19.4875 31.2876ZM16.6 12.3501L18 13.7501L13.75 18.0001L12.35 16.6001L16.6 12.3501ZM29.4 12.3501L33.65 16.6001L32.25 18.0001L28 13.7501L29.4 12.3501ZM23 30.0001C24.95 30.0001 26.6041 29.3209 27.9625 27.9626C29.3208 26.6043 30 24.9501 30 23.0001C30 21.0501 29.3208 19.3959 27.9625 18.0376C26.6041 16.6793 24.95 16.0001 23 16.0001C21.05 16.0001 19.3958 16.6793 18.0375 18.0376C16.6791 19.3959 16 21.0501 16 23.0001C16 24.9501 16.6791 26.6043 18.0375 27.9626C19.3958 29.3209 21.05 30.0001 23 30.0001Z" fill="#063165"/>
</svg>
