<svg width="45" height="45" viewBox="0 0 45 45" fill="none" xmlns="http://www.w3.org/2000/svg">
<circle cx="22.5" cy="22.5" r="22" fill="white" stroke="#D9D9D9"/>
<path d="M16.85 27.1C17.7 26.45 18.65 25.9375 19.7 25.5625C20.75 25.1875 21.85 25 23 25C24.15 25 25.25 25.1875 26.3 25.5625C27.35 25.9375 28.3 26.45 29.15 27.1C29.7333 26.4167 30.1875 25.6417 30.5125 24.775C30.8375 23.9083 31 22.9833 31 22C31 19.7833 30.2208 17.8958 28.6625 16.3375C27.1042 14.7792 25.2167 14 23 14C20.7833 14 18.8958 14.7792 17.3375 16.3375C15.7792 17.8958 15 19.7833 15 22C15 22.9833 15.1625 23.9083 15.4875 24.775C15.8125 25.6417 16.2667 26.4167 16.85 27.1ZM20.5125 21.9875C19.8375 21.3125 19.5 20.4833 19.5 19.5C19.5 18.5167 19.8375 17.6875 20.5125 17.0125C21.1875 16.3375 22.0167 16 23 16C23.9833 16 24.8125 16.3375 25.4875 17.0125C26.1625 17.6875 26.5 18.5167 26.5 19.5C26.5 20.4833 26.1625 21.3125 25.4875 21.9875C24.8125 22.6625 23.9833 23 23 23C22.0167 23 21.1875 22.6625 20.5125 21.9875ZM23 32C21.6167 32 20.3167 31.7375 19.1 31.2125C17.8833 30.6875 16.825 29.975 15.925 29.075C15.025 28.175 14.3125 27.1167 13.7875 25.9C13.2625 24.6833 13 23.3833 13 22C13 20.6167 13.2625 19.3167 13.7875 18.1C14.3125 16.8833 15.025 15.825 15.925 14.925C16.825 14.025 17.8833 13.3125 19.1 12.7875C20.3167 12.2625 21.6167 12 23 12C24.3833 12 25.6833 12.2625 26.9 12.7875C28.1167 13.3125 29.175 14.025 30.075 14.925C30.975 15.825 31.6875 16.8833 32.2125 18.1C32.7375 19.3167 33 20.6167 33 22C33 23.3833 32.7375 24.6833 32.2125 25.9C31.6875 27.1167 30.975 28.175 30.075 29.075C29.175 29.975 28.1167 30.6875 26.9 31.2125C25.6833 31.7375 24.3833 32 23 32ZM25.5 29.6125C26.2833 29.3542 27 28.9833 27.65 28.5C27 28.0167 26.2833 27.6458 25.5 27.3875C24.7167 27.1292 23.8833 27 23 27C22.1167 27 21.2833 27.1292 20.5 27.3875C19.7167 27.6458 19 28.0167 18.35 28.5C19 28.9833 19.7167 29.3542 20.5 29.6125C21.2833 29.8708 22.1167 30 23 30C23.8833 30 24.7167 29.8708 25.5 29.6125ZM24.075 20.575C24.3583 20.2917 24.5 19.9333 24.5 19.5C24.5 19.0667 24.3583 18.7083 24.075 18.425C23.7917 18.1417 23.4333 18 23 18C22.5667 18 22.2083 18.1417 21.925 18.425C21.6417 18.7083 21.5 19.0667 21.5 19.5C21.5 19.9333 21.6417 20.2917 21.925 20.575C22.2083 20.8583 22.5667 21 23 21C23.4333 21 23.7917 20.8583 24.075 20.575Z" fill="#063165"/>
</svg>
